<?xml version="1.0" standalone="no"?>
<!DOCTYPE svg PUBLIC "-//W3C//DTD SVG 20010904//EN"
 "http://www.w3.org/TR/2001/REC-SVG-20010904/DTD/svg10.dtd">
<svg version="1.0" xmlns="http://www.w3.org/2000/svg"
 width="400.000000pt" height="400.000000pt" viewBox="0 0 400.000000 400.000000"
 preserveAspectRatio="xMidYMid meet">
<metadata>
Created by potrace 1.14, written by Peter Selinger 2001-2017
</metadata>
<g transform="translate(0.000000,400.000000) scale(0.100000,-0.100000)"
fill="#000000" stroke="none">
<path d="M919 2780 c-34 -41 -72 -53 -97 -28 -14 14 -47 -12 -57 -43 -4 -11
-22 -26 -41 -34 -19 -8 -34 -20 -34 -28 0 -8 -7 -20 -15 -27 -8 -7 -17 -27
-21 -46 -3 -19 -10 -34 -14 -34 -4 0 -29 10 -55 21 -66 29 -153 23 -219 -16
-47 -28 -120 -103 -139 -142 -7 -16 -19 -23 -37 -23 -14 0 -35 -7 -46 -15 -22
-17 -3 -21 26 -5 29 16 32 -2 9 -66 -31 -86 -35 -259 -9 -333 21 -59 66 -124
80 -116 5 3 11 1 14 -4 3 -5 30 -17 60 -26 41 -13 56 -23 60 -40 3 -13 15 -27
26 -30 11 -3 20 -12 20 -19 0 -41 -17 -81 -46 -110 -40 -40 -40 -42 -14 -49
l21 -5 -21 -54 c-36 -96 -27 -105 105 -103 44 1 85 -2 90 -6 21 -15 74 -17 86
-3 15 18 29 18 67 -2 21 -10 37 -12 49 -6 10 5 24 7 30 5 7 -3 16 2 19 11 3 9
12 16 20 16 8 0 14 7 14 15 0 9 -9 15 -21 15 -18 0 -20 4 -14 27 7 31 20 42
44 38 9 -2 28 -4 43 -4 23 -1 27 -5 24 -23 -5 -36 13 -100 40 -139 37 -54 94
-82 168 -82 33 0 68 2 76 4 11 3 15 -4 14 -28 l-2 -33 72 -1 c39 0 107 -2 152
-5 l80 -4 13 50 c7 28 16 50 19 50 3 0 20 -14 37 -30 56 -54 108 -65 305 -65
l174 0 8 35 c23 105 59 234 68 243 4 5 11 -6 15 -25 4 -18 16 -50 26 -71 21
-39 91 -97 119 -97 31 0 50 -24 55 -75 4 -27 7 -51 9 -52 1 -1 69 20 152 48
l150 51 51 -32 c58 -36 127 -45 180 -24 23 9 63 11 136 7 l103 -6 27 104 c15
57 40 154 55 214 l29 110 45 -3 c55 -3 62 5 64 70 2 72 6 76 61 72 26 -2 82
-5 125 -8 l76 -4 27 117 c15 64 38 161 51 215 13 54 24 100 24 102 0 1 12 -1
28 -5 62 -16 66 -10 81 114 5 50 13 101 16 115 18 70 34 65 -211 68 l-221 2
-1 46 c-2 98 -59 159 -147 159 -44 0 -60 -5 -92 -31 -43 -34 -73 -88 -77 -136
l-3 -33 -224 0 c-123 0 -359 2 -524 3 l-300 3 -27 58 c-32 69 -98 137 -169
175 -56 31 -102 35 -145 13 -70 -36 -90 -95 -63 -183 10 -32 19 -60 19 -62 0
-2 -42 -3 -92 -2 -51 1 -98 1 -104 1 -6 -1 -17 -21 -24 -46 -13 -48 -31 -56
-71 -35 -14 8 -18 17 -13 36 5 19 0 32 -21 54 -25 26 -27 33 -17 54 9 21 8 28
-6 38 -10 7 -23 32 -30 56 -7 23 -17 42 -23 42 -6 0 -8 4 -5 9 12 19 -32 40
-94 45 -54 5 -69 10 -86 31 -16 20 -28 25 -55 24 -19 -1 -44 1 -56 5 -17 5
-28 -1 -54 -34z m-469 -375 c0 -6 -111 -115 -117 -115 -10 0 9 55 25 74 22 25
92 56 92 41z m589 -314 c-3 -95 -15 -103 -49 -32 -27 59 -23 76 19 77 31 1 32
1 30 -45z m-549 24 c0 -9 6 -18 14 -21 34 -13 25 -53 -11 -54 -13 0 -36 68
-27 82 9 13 24 9 24 -7z m254 -16 c17 -17 66 -53 108 -79 48 -31 83 -60 93
-80 16 -30 15 -32 -8 -56 -18 -18 -38 -25 -87 -29 -35 -3 -68 -9 -74 -14 -6
-5 -33 -12 -59 -15 -43 -7 -49 -5 -54 13 -3 12 -11 17 -19 14 -8 -3 -20 0 -28
6 -7 6 -16 8 -19 4 -4 -3 -13 0 -22 7 -8 7 -15 9 -15 6 0 -4 -6 -4 -12 1 -23
14 -37 11 -43 -8 -4 -11 -12 -18 -18 -16 -16 5 -18 82 -3 102 10 14 216 173
225 174 3 1 19 -13 35 -30z m193 15 c9 -24 -11 -38 -37 -24 -21 11 -21 12 -3
25 24 19 32 18 40 -1z m269 -160 c-4 -12 -10 -14 -17 -7 -5 5 -7 17 -3 27 4
12 10 14 17 7 5 -5 7 -17 3 -27z m-775 -456 c4 -42 -14 -68 -41 -61 -24 6 -25
21 -4 51 16 24 43 30 45 10z"/>
</g>
</svg>
